<?xml version="1.0" encoding="UTF-8" standalone="no"?>
<svg
   version="1.1"
   id="Layer_1"
   x="0px"
   y="0px"
   viewBox="0 0 11874.461 15099.494"
   xml:space="preserve"
   sodipodi:docname="product-delivery-tracking-icon.svg"
   width="11874.461"
   height="15099.494"
   xmlns:inkscape="http://www.inkscape.org/namespaces/inkscape"
   xmlns:sodipodi="http://sodipodi.sourceforge.net/DTD/sodipodi-0.dtd"
   xmlns="http://www.w3.org/2000/svg"
   xmlns:svg="http://www.w3.org/2000/svg"><defs
     id="defs1" /><sodipodi:namedview
     id="namedview1"
     pagecolor="#ffffff"
     bordercolor="#000000"
     borderopacity="0.25"
     inkscape:showpageshadow="2"
     inkscape:pageopacity="0.0"
     inkscape:pagecheckerboard="0"
     inkscape:deskcolor="#d1d1d1" /><g
     id="g1"><path
       d="m 91.36,103.58 11.21,12.23 -7.74,7.07 -10.81,-11.9 c -4.11,2.73 -9.06,4.34 -14.37,4.34 -7.16,0 -13.64,-2.9 -18.32,-7.58 -4.7,-4.7 -7.58,-11.18 -7.58,-18.32 0,-7.16 2.9,-13.64 7.58,-18.32 4.7,-4.7 11.18,-7.58 18.32,-7.58 7.16,0 13.64,2.9 18.32,7.58 4.7,4.7 7.58,11.18 7.58,18.32 0,5.23 -1.55,10.11 -4.22,14.2 z M 105.23,8.54 c 0.6,-0.12 1.22,0 1.73,0.31 0.88,0.36 1.5,1.22 1.5,2.23 l 0.51,70.57 c 0.04,0.87 -0.38,1.73 -1.18,2.2 l -3.05,1.82 c -0.09,-0.88 -1.26,-4.9 -0.63,-5.28 l -0.47,-65.32 -23.7,14.94 v 0 25.3 c -1.58,-0.5 -3.56,-0.89 -5.22,-1.17 V 30.71 L 43.18,26.64 42.13,57.13 30.93,49.5 19.73,55.83 22.04,23.95 5.34,22.46 v 66.13 l 28.03,3.04 c 0.11,1.65 0.33,3.51 0.65,5.09 L 2.31,93.2 C 1.02,93.13 0,92.07 0,90.76 v -71.77 0 C -0.03,18.03 0.52,17.1 1.45,16.69 L 38.98,0.2 v 0 c 0.39,-0.17 0.84,-0.24 1.29,-0.19 l 64.96,8.53 z M 70.02,8.82 46.97,21.7 77.57,25.61 98.55,12.56 70.02,8.82 Z M 25.03,19.43 47.84,5.91 40.32,4.92 11.3,17.68 Z m 59.68,54.93 c -3.85,-3.85 -9.16,-6.23 -15.03,-6.23 -5.88,0 -11.19,2.38 -15.03,6.23 -3.85,3.85 -6.23,9.16 -6.23,15.03 0,5.88 2.38,11.19 6.23,15.03 3.85,3.85 9.16,6.23 15.03,6.23 5.88,0 11.19,-2.38 15.03,-6.23 3.85,-3.85 6.23,-9.16 6.23,-15.03 0,-5.88 -2.39,-11.19 -6.23,-15.03 z"
       id="path1" /></g><path
     style="fill:#f9f9f9;stroke-width:0.156137"
     d="M 17.212329,94.787182 C 0.31022623,92.88914 1.2755486,93.050914 0.47805918,91.982763 L 0.15613723,91.551584 V 54.819598 18.087611 L 0.57262391,17.541568 C 0.94999392,17.046811 2.7830566,16.207046 20.089777,8.6003438 30.595144,3.9829938 39.401229,0.17226723 39.658856,0.13206265 39.916482,0.09185806 54.601188,1.9623756 72.291536,4.2887684 c 17.690348,2.3263927 32.614584,4.264677 33.164974,4.3072981 1.20641,0.093424 2.07924,0.5411366 2.55913,1.3127001 0.41176,0.6620294 0.33869,-3.7747353 0.65675,39.8742214 0.23023,31.595344 0.22894,32.310078 -0.0596,32.962375 -0.25676,0.580456 -0.51455,0.79955 -1.99175,1.692728 -0.93325,0.564285 -1.73985,0.978017 -1.79246,0.919403 -0.23364,-0.260317 -0.78747,-3.536232 -0.72534,-4.290382 0.0368,-0.446918 -0.0245,-13.389431 -0.13633,-28.761141 -0.11181,-15.37171 -0.20563,-30.044003 -0.2085,-32.605094 -0.004,-3.840214 -0.0424,-4.647682 -0.21713,-4.606049 -0.11655,0.02777 -5.491574,3.380735 -11.944495,7.451046 l -11.732584,7.400561 v 12.640741 c 0,11.289971 -0.02556,12.630934 -0.239225,12.548943 -0.426642,-0.163718 -1.992239,-0.538093 -3.390965,-0.810871 L 74.8678,54.058816 V 42.372864 30.686914 l -0.351309,-0.07657 C 74.323272,30.568232 67.220277,29.64239 58.732058,28.552918 47.786632,27.14806 43.267718,26.622567 43.191585,26.745754 c -0.05904,0.09553 -0.306226,6.096445 -0.549295,13.335367 -0.243072,7.23892 -0.486819,13.990039 -0.541662,15.002486 l -0.09971,1.840812 -5.533505,-3.772523 c -4.272211,-2.912625 -5.589024,-3.738561 -5.777077,-3.623521 -1.863542,1.140018 -10.671001,5.986152 -10.74495,5.912202 -0.05503,-0.05502 0.411626,-7.164931 1.037004,-15.799793 0.625376,-8.634862 1.11363,-15.719206 1.085007,-15.742985 C 22.020127,23.85853 5.6216045,22.390675 5.3477,22.401194 5.2832934,22.403668 5.2305971,37.299845 5.2305971,55.50381 v 33.098117 l 0.3513087,0.07532 c 0.1932199,0.04143 6.2884272,0.710416 13.5449042,1.486646 7.256478,0.77623 13.40895,1.447039 13.67216,1.490686 l 0.478562,0.07936 0.201098,1.870371 c 0.110603,1.028704 0.256726,2.117016 0.324714,2.41847 l 0.123617,0.5481 -0.569072,-0.01726 C 33.0449,96.54412 25.779397,95.749233 17.212329,94.787184 Z m 69.621194,-74.81919 c 5.054979,-3.144122 9.770415,-6.07755 10.478746,-6.51873 0.70833,-0.441181 1.28799,-0.840823 1.288132,-0.888094 1.42e-4,-0.04727 -3.881704,-0.592097 -8.626324,-1.210725 C 85.229457,10.731814 78.958595,9.9104559 76.038829,9.5252013 73.119063,9.1399468 70.526787,8.8240668 70.278217,8.8232458 c -0.306062,-0.00101 -3.985299,1.9703292 -11.398018,6.1070732 -12.520808,6.987363 -12.080037,6.733064 -11.820316,6.819637 0.2083,0.06943 29.683299,3.885647 30.249269,3.916461 0.189788,0.01033 4.294004,-2.445217 9.524371,-5.698425 z M 36.181683,12.943031 C 48.795797,5.4745885 47.909301,6.0124794 47.793967,5.8971443 47.687888,5.7910646 41.278974,4.9235298 40.578671,4.9204544 c -0.301646,-0.00132 -5.734844,2.3064828 -14.351397,6.0959076 -7.626287,3.353921 -14.111068,6.200445 -14.410624,6.325606 -0.299556,0.125163 -0.496318,0.275899 -0.437249,0.334968 0.120793,0.120792 12.143066,1.711145 13.170058,1.742187 0.604548,0.01827 1.589352,-0.530005 11.632224,-6.476092 z"
     id="path2" /><path
     style="fill:#ff0000;stroke-width:0.156137"
     d="m 89.469246,116.82968 c -2.90545,-3.19886 -5.331733,-5.83618 -5.391738,-5.86072 -0.06001,-0.0245 -0.663676,0.28414 -1.341489,0.68592 -1.516071,0.89869 -2.809373,1.48734 -4.759812,2.16646 -12.193838,4.24576 -25.812786,-1.42858 -31.527906,-13.13611 -3.558981,-7.290647 -3.466766,-15.675668 0.252939,-22.999309 1.27245,-2.505299 2.994826,-4.804584 5.1605,-6.88901 3.555133,-3.421757 7.833806,-5.664672 12.779072,-6.698893 2.043503,-0.427366 5.705257,-0.578204 7.880344,-0.324615 11.442523,1.334063 20.631208,10.015047 22.568351,21.321385 1.01902,5.947623 -0.205678,12.503212 -3.281847,17.567132 l -0.564512,0.92929 5.513368,6.02312 c 3.032352,3.31272 5.533084,6.07825 5.557174,6.14563 0.0441,0.12334 -7.288574,6.88583 -7.466427,6.88583 -0.05246,0 -2.472567,-2.61725 -5.378017,-5.81611 z m -15.688278,-6.51604 c 8.646691,-1.65537 15.463394,-8.63339 16.921915,-17.322402 0.3198,-1.90518 0.3198,-5.300172 0,-7.205352 C 89.580545,79.099658 85.156029,73.196732 79.020779,70.200318 72.78448,67.154553 65.17098,67.393915 59.175728,70.82423 c -5.410661,3.095828 -9.053186,8.101953 -10.415985,14.315265 -0.476011,2.170241 -0.476011,6.327894 0,8.498134 0.879853,4.011453 2.620288,7.393351 5.269982,10.240271 5.062663,5.43949 12.42475,7.83835 19.751243,6.43574 z"
     id="path3" /></svg>
